<svg width="173" height="34" viewBox="0 0 173 34" fill="none" xmlns="http://www.w3.org/2000/svg">
<mask id="path-1-inside-1_3207_36" fill="white">
<path fill-rule="evenodd" clip-rule="evenodd" d="M59 27.9856C55.9319 31.0781 51.6359 33 46.8806 33C37.5577 33 30 25.6127 30 16.5C30 7.3873 37.5577 0 46.8806 0C51.6359 0 55.9319 1.92191 59 5.0144C62.0681 1.92191 66.3641 0 71.1194 0C80.4423 0 88 7.3873 88 16.5C88 25.6127 80.4423 33 71.1194 33C66.3641 33 62.0681 31.0781 59 27.9856Z"/>
</mask>
<path fill-rule="evenodd" clip-rule="evenodd" d="M59 27.9856C55.9319 31.0781 51.6359 33 46.8806 33C37.5577 33 30 25.6127 30 16.5C30 7.3873 37.5577 0 46.8806 0C51.6359 0 55.9319 1.92191 59 5.0144C62.0681 1.92191 66.3641 0 71.1194 0C80.4423 0 88 7.3873 88 16.5C88 25.6127 80.4423 33 71.1194 33C66.3641 33 62.0681 31.0781 59 27.9856Z" fill="#F5F5F5"/>
<path d="M59 27.9856L62.5495 24.4641L59 20.8864L55.4505 24.4641L59 27.9856ZM59 5.0144L55.4505 8.53592L59 12.1136L62.5495 8.53592L59 5.0144ZM55.4505 24.4641C53.295 26.6367 50.2662 28 46.8806 28V38C53.0055 38 58.5688 35.5195 62.5495 31.5071L55.4505 24.4641ZM46.8806 28C40.211 28 35 22.7444 35 16.5H25C25 28.481 34.9044 38 46.8806 38V28ZM35 16.5C35 10.2556 40.211 5 46.8806 5V-5C34.9044 -5 25 4.519 25 16.5H35ZM46.8806 5C50.2662 5 53.295 6.3633 55.4505 8.53592L62.5495 1.49288C58.5688 -2.51947 53.0055 -5 46.8806 -5V5ZM62.5495 8.53592C64.705 6.3633 67.7338 5 71.1194 5V-5C64.9945 -5 59.4312 -2.51947 55.4505 1.49288L62.5495 8.53592ZM71.1194 5C77.789 5 83 10.2556 83 16.5H93C93 4.519 83.0956 -5 71.1194 -5V5ZM83 16.5C83 22.7444 77.789 28 71.1194 28V38C83.0956 38 93 28.481 93 16.5H83ZM71.1194 28C67.7338 28 64.705 26.6367 62.5495 24.4641L55.4505 31.5071C59.4312 35.5195 64.9945 38 71.1194 38V28Z" fill="#FE9E0D" mask="url(#path-1-inside-1_3207_36)"/>
<path d="M4.5 0.194999H24.435V5.325H9.81V14.46H22.545V19.545H9.81V33H4.5V0.194999ZM95.5107 33V0.194999H104.871C108.141 0.194999 110.916 0.689998 113.196 1.68C115.476 2.67 117.321 3.99 118.731 5.64C120.141 7.26 121.161 9.075 121.791 11.085C122.451 13.065 122.781 15.06 122.781 17.07C122.781 19.53 122.346 21.75 121.476 23.73C120.636 25.68 119.451 27.345 117.921 28.725C116.391 30.105 114.636 31.17 112.656 31.92C110.706 32.64 108.636 33 106.446 33H95.5107ZM100.821 27.87H105.456C107.796 27.87 109.851 27.45 111.621 26.61C113.391 25.74 114.771 24.48 115.761 22.83C116.781 21.15 117.291 19.11 117.291 16.71C117.291 14.64 116.946 12.885 116.256 11.445C115.596 10.005 114.711 8.835 113.601 7.935C112.521 7.035 111.336 6.375 110.046 5.955C108.786 5.535 107.556 5.325 106.356 5.325H100.821V27.87ZM129.744 0.194999H135.054V33H129.744V0.194999ZM144.07 0.194999H165.85V5.325H149.38V13.965H164.05V19.095H149.38V27.87H166.48V33H144.07V0.194999Z" fill="#FE9E0D"/>
</svg>
