<svg width="170" height="68" viewBox="0 0 170 68" fill="none" xmlns="http://www.w3.org/2000/svg">
<path d="M4.5 17.195H24.435V22.325H9.81V31.46H22.545V36.545H9.81V50H4.5V17.195ZM95.5107 50V17.195H104.871C108.141 17.195 110.916 17.69 113.196 18.68C115.476 19.67 117.321 20.99 118.731 22.64C120.141 24.26 121.161 26.075 121.791 28.085C122.451 30.065 122.781 32.06 122.781 34.07C122.781 36.53 122.346 38.75 121.476 40.73C120.636 42.68 119.451 44.345 117.921 45.725C116.391 47.105 114.636 48.17 112.656 48.92C110.706 49.64 108.636 50 106.446 50H95.5107ZM100.821 44.87H105.456C107.796 44.87 109.851 44.45 111.621 43.61C113.391 42.74 114.771 41.48 115.761 39.83C116.781 38.15 117.291 36.11 117.291 33.71C117.291 31.64 116.946 29.885 116.256 28.445C115.596 27.005 114.711 25.835 113.601 24.935C112.521 24.035 111.336 23.375 110.046 22.955C108.786 22.535 107.556 22.325 106.356 22.325H100.821V44.87ZM129.744 17.195H135.054V50H129.744V17.195ZM144.07 17.195H165.85V22.325H149.38V30.965H164.05V36.095H149.38V44.87H166.48V50H144.07V17.195Z" fill="#FE9E0D"/>
<mask id="path-2-inside-1_3202_4" fill="white">
<path fill-rule="evenodd" clip-rule="evenodd" d="M59 44.9856C55.9319 48.0781 51.6359 50 46.8806 50C37.5577 50 30 42.6127 30 33.5C30 24.3873 37.5577 17 46.8806 17C51.6359 17 55.9319 18.9219 59 22.0144C62.0681 18.9219 66.3641 17 71.1194 17C80.4423 17 88 24.3873 88 33.5C88 42.6127 80.4423 50 71.1194 50C66.3641 50 62.0681 48.0781 59 44.9856Z"/>
</mask>
<path fill-rule="evenodd" clip-rule="evenodd" d="M59 44.9856C55.9319 48.0781 51.6359 50 46.8806 50C37.5577 50 30 42.6127 30 33.5C30 24.3873 37.5577 17 46.8806 17C51.6359 17 55.9319 18.9219 59 22.0144C62.0681 18.9219 66.3641 17 71.1194 17C80.4423 17 88 24.3873 88 33.5C88 42.6127 80.4423 50 71.1194 50C66.3641 50 62.0681 48.0781 59 44.9856Z" fill="#F5F5F5"/>
<path d="M59 44.9856L62.5495 41.4641L59 37.8864L55.4505 41.4641L59 44.9856ZM59 22.0144L55.4505 25.5359L59 29.1136L62.5495 25.5359L59 22.0144ZM55.4505 41.4641C53.295 43.6367 50.2662 45 46.8806 45V55C53.0055 55 58.5688 52.5195 62.5495 48.5071L55.4505 41.4641ZM46.8806 45C40.211 45 35 39.7444 35 33.5H25C25 45.481 34.9044 55 46.8806 55V45ZM35 33.5C35 27.2556 40.211 22 46.8806 22V12C34.9044 12 25 21.519 25 33.5H35ZM46.8806 22C50.2662 22 53.295 23.3633 55.4505 25.5359L62.5495 18.4929C58.5688 14.4805 53.0055 12 46.8806 12V22ZM62.5495 25.5359C64.705 23.3633 67.7338 22 71.1194 22V12C64.9945 12 59.4312 14.4805 55.4505 18.4929L62.5495 25.5359ZM71.1194 22C77.789 22 83 27.2556 83 33.5H93C93 21.519 83.0956 12 71.1194 12V22ZM83 33.5C83 39.7444 77.789 45 71.1194 45V55C83.0956 55 93 45.481 93 33.5H83ZM71.1194 45C67.7338 45 64.705 43.6367 62.5495 41.4641L55.4505 48.5071C59.4312 52.5195 64.9945 55 71.1194 55V45Z" fill="#FE9E0D" mask="url(#path-2-inside-1_3202_4)"/>
</svg>
